HIERARCHY
ROOT pelvis
{
  OFFSET 0 100 0
  CHANNELS 6 Xposition Yposition Zposition Zrotation Xrotation Yrotation
  JOINT pelvis_right_femur
  {
    OFFSET -10.78128 -3.44521 -0.5502486
    CHANNELS 3 Zrotation Xrotation Yrotation
    JOINT right_femur_tibia
    {
      OFFSET -0.8047443 -44.0398 -0.1307829
      CHANNELS 3 Zrotation Xrotation Yrotation
      JOINT right_tibia_foot
      {
        OFFSET 3.006224 -47.83518 -5
        CHANNELS 3 Zrotation Xrotation Yrotation
        End Site
        {
          OFFSET 0 -5 15
        }
      }
    }
  }
  JOINT pelvis_left_femur
  {
    OFFSET 10.78128 -3.44521 -0.5502486
    CHANNELS 3 Zrotation Xrotation Yrotation
    JOINT left_femur_tibia
    {
      OFFSET 0.8047443 -44.0398 -0.1307829
      CHANNELS 3 Zrotation Xrotation Yrotation
      JOINT left_tibia_foot
      {
        OFFSET -4.370144 -48.10324 -4.275266
        CHANNELS 3 Zrotation Xrotation Yrotation
        End Site
        {
          OFFSET 0 -5 15
        }
      }
    }
  }
  JOINT pelvis_spine1
  {
    OFFSET 0 6.468898 -3.129235
    CHANNELS 3 Zrotation Xrotation Yrotation
    JOINT spine1
    {
      OFFSET 0 23.15396 4.99043
      CHANNELS 3 Zrotation Xrotation Yrotation
      JOINT spine2
      {
        OFFSET 0 20.79997 -5.064912
        CHANNELS 3 Zrotation Xrotation Yrotation
        JOINT neck
        {
          OFFSET 0 14.38658 9.616178
          CHANNELS 3 Zrotation Xrotation Yrotation
          End Site
          {
            OFFSET 0 20 0
          }
        }
      }
      JOINT right_manubrium
      {
        OFFSET -5.722621 16.35077 3.967754
        CHANNELS 3 Zrotation Xrotation Yrotation
        JOINT right_clavicle
        {
          OFFSET -13.16364 1.694482 -4.693211
          CHANNELS 3 Zrotation Xrotation Yrotation
          JOINT right_humerus
          {
            OFFSET -28.5034 -0.3100689 -2.792744
            CHANNELS 3 Zrotation Xrotation Yrotation
            JOINT right_radius
            {
              OFFSET -25.15693 0.02248979 -1.271978
              CHANNELS 3 Zrotation Xrotation Yrotation
              End Site
              {
                OFFSET -15 0 0
              }
            }
          }
        }
      }
      JOINT left_manubrium
      {
        OFFSET 5.722621 16.35077 3.967754
        CHANNELS 3 Zrotation Xrotation Yrotation
        JOINT left_clavicle
        {
          OFFSET 13.16364 1.694482 -4.693211
          CHANNELS 3 Zrotation Xrotation Yrotation
          JOINT left_humerus
          {
            OFFSET 29.39168 -1.063119 -2.237045
            CHANNELS 3 Zrotation Xrotation Yrotation
            JOINT left_radius
            {
              OFFSET 24.59957 -0.9528479 0.9047498
              CHANNELS 3 Zrotation Xrotation Yrotation
              End Site
              {
                OFFSET 15 -0 -0
              }
            }
          }
        }
      }
    }
  }
}
MOTION
Frames: 21
Frame Time: 0.0416666666667
0 103.5113 0 0.8381165 -1.807593 0.8640814 1.049542 -21.7209 2.96547 -0 34.93324 -0 -4.044117 -4.792582 -3.519464 -6.25438 12.35823 -17.02949 0 -5.462958 0 3.302876 -21.47111 20.4095 -3.575141 -1.461061 2.870349 1.452029 8.736076 -7.166163 1.431053 22.18974 7.176068 2.965064 -21.62821 9.044828 3.922596 -18.18245 10.51475 86.97125 31.3896 -17.94924 -0 0 14.20301 -15.17989 10.02913 8.857353 6.297256 -20.02795 -3.564884 -88.95714 26.92463 16.35534 0 0 -19.28427 3.573021 14.17426 9.679778
0.5891917 102.543 3.75608 0.8231239 -1.654565 1.687732 1.12203 -22.16387 2.883117 -0 34.18426 -0 -4.271585 -4.930655 -3.415273 -6.212271 12.56737 -17.13019 0 -6.119614 0 3.59456 -21.60372 20.49667 -3.559397 -1.532573 2.847735 1.507996 8.778188 -7.236695 1.401902 22.14286 7.178184 2.989533 -21.76482 9.026388 3.883498 -18.30984 10.53452 87.05071 31.38817 -18.08941 -0 0 14.22296 -15.01189 9.964028 8.800368 6.368205 -20.19913 -3.592989 -88.99791 26.81203 16.43564 0 0 -19.47621 3.843319 14.33117 9.374818
1.111524 101.5468 7.537258 0.6387293 -1.394533 2.390105 1.754991 -23.70692 2.860433 -0 30.43929 -0 -4.695948 -5.411675 -3.502858 -5.939815 13.37864 -16.79899 0 -3.301821 0 3.276923 -21.43516 19.89303 -3.282886 -1.553633 2.804857 1.731615 8.866843 -7.510634 1.378778 22.05419 7.097592 2.991718 -21.9286 8.914807 3.811702 -18.11364 10.59884 87.60367 31.40327 -19.12239 -0 0 13.54841 -14.53193 10.09971 8.368962 6.477595 -20.75114 -3.656318 -88.63091 26.67328 15.80407 0 0 -20.73584 4.20348 14.40873 8.984793
1.569813 100.4221 11.22375 0.4097673 -0.8755118 2.983524 2.38729 -25.72638 2.805296 -0 26.21135 -0 -5.350178 -6.208342 -3.408984 -5.657989 14.35032 -16.80486 0 -2.523207 0 3.524074 -21.62106 19.6223 -3.060049 -1.686481 2.742358 2.021858 8.954298 -7.853248 1.307793 21.89074 7.054798 3.034458 -22.33391 8.821687 3.737958 -18.18361 10.67727 88.09519 31.54257 -20.14114 -0 0 13.13405 -13.7698 10.08432 7.905724 6.684219 -21.41985 -3.699249 -88.47358 26.51677 15.51702 0 0 -22.06139 4.839035 14.71838 8.301042
1.951018 99.19208 14.87284 0.1911616 -0.5189914 3.470256 3.011462 -27.48593 2.731991 -0 22.21586 -0 -5.968992 -6.759761 -3.375816 -5.381942 15.23949 -16.63576 0 -0.8583148 0 3.582642 -21.61131 19.20926 -2.807025 -1.785441 2.685276 2.270635 9.07954 -8.159925 1.255734 21.76475 6.986066 3.061974 -22.61916 8.702948 3.627089 -18.16754 10.75492 88.65779 31.52078 -21.15794 -0 0 12.59268 -13.19258 10.11779 7.485944 6.853948 -22.07876 -3.784718 -88.21941 26.2527 15.08779 0 0 -23.32348 5.461731 14.94567 7.61239
2.254083 97.88087 18.50546 -0.01412952 -0.2269516 3.854475 3.597789 -29.07242 2.666613 -0 18.51919 -0 -6.548221 -7.213425 -3.358507 -5.126046 16.05259 -16.43706 -0 0.9016804 -0 3.601404 -21.55391 18.79039 -2.562141 -1.872285 2.633225 2.494065 9.208509 -8.4393 1.210829 21.65533 6.914757 3.084274 -22.85864 8.583944 3.511045 -18.13676 10.82825 89.20442 31.44945 -22.10784 -0 0 12.05602 -12.69805 10.15713 7.104501 7.00497 -22.69867 -3.876757 -87.96261 25.96839 14.65727 0 0 -24.4896 6.054795 15.13814 6.951437
2.481144 96.53855 22.18813 -0.1777017 -0.1253064 4.143122 4.11082 -30.25376 2.577604 -0 15.44662 -0 -7.029718 -7.36445 -3.400642 -4.909007 16.72191 -16.08029 -0 3.390254 -0 3.426477 -21.30704 18.26763 -2.312316 -1.914898 2.588863 2.653629 9.361888 -8.655675 1.190006 21.59573 6.825712 3.089274 -22.9517 8.45248 3.371291 -18.01526 10.89286 89.76209 31.22585 -22.95991 -0 0 11.43648 -12.43756 10.24672 6.801595 7.102111 -23.24565 -4.003996 -87.63254 25.60669 14.11756 0 0 -25.47978 6.568223 15.22821 6.359489
2.638749 95.22841 25.99338 -0.2904289 -0.2184101 4.344915 4.537996 -30.9785 2.480176 -0 13.11016 -0 -7.366898 -7.222791 -3.514492 -4.73984 17.21862 -15.5646 -0 6.64736 -0 3.018865 -20.86535 17.64146 -2.063886 -1.901403 2.555964 2.744214 9.524346 -8.799921 1.197168 21.59043 6.722087 3.07405 -22.8861 8.316467 3.222995 -17.78396 10.94504 90.30151 30.8789 -23.68711 -0 0 10.74385 -12.41673 10.39766 6.579848 7.134704 -23.68405 -4.154291 -87.23456 25.20991 13.46794 0 0 -26.26903 6.937373 15.19615 5.911905
2.735964 94.02522 30.00801 -0.3428881 -0.5412885 4.469104 4.870124 -31.15357 2.370025 -0 11.60408 -0 -7.526982 -6.748674 -3.715834 -4.622371 17.49748 -14.84764 -0 10.88853 -0 2.322338 -20.17571 16.88835 -1.812658 -1.818121 2.539239 2.753975 9.69665 -8.858458 1.238481 21.64914 6.599218 3.034213 -22.62989 8.174047 3.065765 -17.41686 10.98363 90.81687 30.3927 -24.26938 -0 0 9.960452 -12.67829 10.62884 6.451644 7.088762 -23.99223 -4.330635 -86.75624 24.77523 12.68458 0 0 -26.82908 7.122281 15.01691 5.6504
2.784084 93.01525 34.32549 -0.3300728 -1.108556 4.52519 5.106336 -30.6779 2.264847 -0 10.98735 -0 -7.464112 -5.962503 -4.02172 -4.553038 17.48129 -13.90562 -0 16.25133 -0 1.287165 -19.19631 16.00727 -1.557562 -1.650754 2.549364 2.675467 9.868061 -8.817769 1.318997 21.77659 6.454831 2.965454 -22.16322 8.027928 2.909188 -16.89713 11.00741 91.28031 29.7853 -24.67417 -0 0 9.098529 -13.2417 10.95691 6.426461 6.951027 -24.13516 -4.522195 -86.2054 24.33145 11.77369 0 0 -27.13 7.058528 14.66459 5.649056
2.796729 92.29519 39.0429 -0.2488814 -1.935082 4.521458 5.249604 -29.39692 2.186792 -0 11.29004 -0 -7.132383 -4.911741 -4.44681 -4.515343 17.03483 -12.71025 -0 22.86191 -0 -0.1295178 -17.8676 15.01371 -1.295876 -1.385239 2.605035 2.499496 10.0286 -8.659102 1.443512 21.97566 6.284039 2.862962 -21.46644 7.878489 2.760518 -16.22155 11.01682 91.65109 29.07547 -24.84836 -0 0 8.194176 -14.13222 11.39836 6.523291 6.707062 -24.07232 -4.714774 -85.60445 23.90523 10.77038 0 0 -27.12431 6.680734 14.10983 5.983941
2.790378 91.9653 44.24851 -0.1027421 -3.01101 4.462284 5.311532 -27.10566 2.172918 -0 12.45031 -0 -6.491891 -3.730989 -4.991729 -4.466828 15.93646 -11.25238 -0 30.70149 -0 -1.939914 -16.13406 13.96489 -1.026332 -1.012455 2.738412 2.221007 10.16272 -8.360822 1.613453 22.24022 6.081515 2.722701 -20.5386 7.72582 2.629315 -15.42196 11.01461 91.85632 28.30817 -24.70653 -0 0 7.342904 -15.35499 11.96208 6.768221 6.345512 -23.75499 -4.880675 -85.01227 23.54148 9.778491 0 0 -26.74656 5.921621 13.32623 6.738565
2.784531 92.1044 49.99432 0.08805829 -4.263535 4.341826 5.319542 -23.6035 2.265364 -0 14.15984 -0 -5.558343 -2.703758 -5.606779 -4.319672 13.87614 -9.574727 -0 39.36871 -0 -4.060058 -13.98798 12.98841 -0.7501214 -0.5451511 2.997338 1.850783 10.25423 -7.909318 1.819164 22.54233 5.84318 2.546163 -19.43315 7.566482 2.521216 -14.60992 11.00967 91.78545 27.56365 -24.13318 -0 0 6.738495 -16.85501 12.63065 7.187537 5.871941 -23.15234 -4.977485 -84.5517 23.2952 9.025803 0 0 -25.93144 4.762469 12.32047 7.94972
2.800149 92.71737 56.25158 0.2725126 -5.503306 4.134669 5.323069 -18.86831 2.486298 -0 15.68619 -0 -4.48207 -2.295208 -6.140612 -3.940025 10.55594 -7.820137 -0 47.74326 -0 -6.219139 -11.56264 12.29216 -0.4745266 -0.04416227 3.433911 1.434801 10.29556 -7.324035 2.028579 22.8168 5.572737 2.348734 -18.30969 7.39128 2.429875 -14.02145 11.02061 91.3087 26.96067 -23.02168 -0 0 6.687012 -18.45122 13.33169 7.782058 5.332262 -22.30357 -4.955851 -84.42766 23.20944 8.896346 0 0 -24.6697 3.315528 11.19103 9.514726
2.856392 93.67658 62.88133 0.3770574 -6.446988 3.795777 5.374594 -13.28257 2.787946 -0 16.03406 -0 -3.578372 -2.958496 -6.345525 -3.221006 5.957286 -6.226172 -0 54.00032 -0 -7.944863 -9.192892 12.08919 -0.2175905 0.3725668 4.063854 1.054113 10.30695 -6.67795 2.186819 22.97244 5.289325 2.164692 -17.42696 7.186832 2.326841 -13.9736 11.0718 90.36057 26.59535 -21.36195 -0 0 7.490014 -19.84351 13.9294 8.501354 4.823583 -21.36733 -4.79695 -84.86632 23.24587 9.804724 0 0 -23.06809 1.885956 10.1727 11.10698
2.97043 94.73201 69.67289 0.3630039 -6.900758 3.290245 5.470538 -7.541064 3.050062 -0 14.78843 -0 -3.140114 -4.718582 -6.040549 -2.210579 0.5282797 -5.010522 -0 56.509 -0 -8.790766 -7.277748 12.45805 -0.01335723 0.5890803 4.826791 0.7701026 10.33466 -6.061878 2.247796 22.95518 5.026298 2.032151 -16.98759 6.950986 2.174896 -14.66097 11.17304 89.02675 26.44433 -19.27938 -0 0 9.21271 -20.80422 14.28433 9.273394 4.447258 -20.54748 -4.547187 -85.95297 23.25004 11.88482 0 0 -21.28585 0.8378807 9.537537 12.30543
3.163678 95.61558 76.42695 0.2712962 -6.912306 2.62943 5.520576 -2.115041 3.188472 -0 12.69015 -0 -3.175168 -7.115974 -5.267219 -1.105652 -5.13293 -4.257184 -0 54.85271 -0 -8.647953 -6.0147 13.3229 0.09295178 0.5783852 5.623979 0.5686597 10.40419 -5.507596 2.210523 22.79474 4.815364 1.965077 -16.98172 6.708085 1.968179 -16.00671 11.30392 87.47158 26.39015 -16.91385 -0 0 11.65337 -21.36313 14.34221 10.07661 4.231832 -19.91007 -4.276151 -87.56383 23.07695 14.88277 0 0 -19.36251 0.3086011 9.382083 12.92711
3.463148 96.13704 82.99839 0.1719854 -6.653153 1.860942 5.431231 2.921565 3.228242 -0 10.80766 -0 -3.471795 -9.670714 -4.202759 -0.09221483 -10.66167 -3.930135 -0 49.74639 -0 -7.73222 -5.350235 14.5516 0.07463314 0.3965661 6.388139 0.3992269 10.49646 -4.992876 2.107042 22.55929 4.671014 1.950896 -17.26343 6.492959 1.739651 -17.77425 11.43286 85.81395 26.34816 -14.35119 -0 0 14.53906 -21.68352 14.14485 10.92177 4.136407 -19.37611 -4.013664 -89.49179 22.71171 18.40342 0 0 -17.25751 0.1718749 9.599774 13.09987
3.891712 96.20743 89.2999 0.1051448 -6.26761 1.03702 5.183174 7.539661 3.24381 -0 9.687595 -0 -3.822246 -12.10003 -3.030663 0.7266207 -15.82156 -3.940666 -0 42.45167 -0 -6.370096 -5.125151 15.98899 -0.05635638 0.121529 7.081903 0.234612 10.57789 -4.505444 1.972688 22.30435 4.590825 1.969266 -17.68824 6.328497 1.530247 -19.70199 11.53939 84.15109 26.29807 -11.71952 -0 0 17.58787 -21.87989 13.78126 11.78322 4.108916 -18.86796 -3.761183 -91.52641 22.22606 22.05511 0 0 -15.03023 0.2354767 10.0225 13.04226
4.456926 95.83227 95.30522 0.0839725 -5.873364 0.2039546 4.802353 11.57377 3.294363 -0 9.520824 -0 -4.084599 -14.16898 -1.923314 1.289155 -20.30352 -4.19123 -0 34.44561 -0 -4.897169 -5.179597 17.44812 -0.2660135 -0.1710965 7.665252 0.06956706 10.62333 -4.058349 1.839611 22.07536 4.565746 2.002006 -18.13084 6.227354 1.372476 -21.51856 11.61259 82.61347 26.24324 -9.231995 -0 0 20.46748 -22.02067 13.35125 12.5978 4.107877 -18.35893 -3.524873 -93.4358 21.72426 25.42362 0 0 -12.85141 0.3421741 10.49167 12.93523
5.144687 95.10804 101.0573 0.1133355 -5.604447 -0.5933115 4.314373 14.78637 3.39924 -0 10.51077 -0 -4.169584 -15.55647 -1.048916 1.543497 -23.70615 -4.584763 -0 27.24561 -0 -3.630679 -5.379307 18.71969 -0.5189309 -0.4106932 8.084879 -0.1024471 10.62436 -3.671939 1.739316 21.9215 4.585769 2.034646 -18.46103 6.197294 1.283937 -22.94463 11.64364 81.3735 26.17078 -7.145665 -0 0 22.79828 -22.19271 12.94642 13.3012 4.099198 -17.85417 -3.330963 -94.95896 21.31632 28.07008 0 0 -10.91504 0.385129 10.8677 12.89509
